<svg xmlns="http://www.w3.org/2000/svg" width="128" height="20" fill="none"><path fill="#fff" fill-rule="evenodd" d="M79.64 9.846v9.77h-4.117v-9.77h-1.839V5.895h1.839c0-3.842 2.113-6.147 6.669-5.873v3.952c-1.537-.137-2.553.329-2.553 1.92h2.553v3.952h-2.553Zm-11.395 8.48C67.339 19.369 65.995 20 64.156 20c-3.595 0-6.559-3.156-6.559-7.245s2.964-7.245 6.559-7.245c1.839 0 3.183.632 4.089 1.674V.406h4.116v19.21h-4.116v-1.29Zm-54.77-1.866C12.294 18.6 9.961 20 7.271 20 3.101 20 0 16.844 0 12.755S3.101 5.51 7.272 5.51c2.662 0 5.022 1.4 6.202 3.513L9.88 11.11c-.466-.96-1.454-1.537-2.662-1.537-1.783 0-3.1 1.29-3.1 3.183 0 1.894 1.317 3.183 3.1 3.183 1.208 0 2.223-.576 2.662-1.536l3.595 2.058Zm5.164-3.046v6.202h-4.116V5.895h4.116v2.442c.549-1.839 2.388-2.717 4.117-2.717v4.665c-1.702-.274-4.117.412-4.117 3.129ZM30.116 20c4.034 0 7.272-3.156 7.272-7.245S34.15 5.51 30.116 5.51c-4.034 0-7.272 3.156-7.272 7.245 0 4.09 3.238 7.245 7.272 7.245Zm-3.156-7.245c0 1.949 1.372 3.238 3.156 3.238s3.156-1.29 3.156-3.238-1.372-3.238-3.156-3.238-3.156 1.29-3.156 3.238Zm18.337 6.86 2.196-7.326 2.195 7.327h3.842l4.39-13.721h-4.39l-1.976 7.354-2.14-7.354h-3.842l-2.14 7.354-1.977-7.354h-4.39l4.39 13.72h3.842Zm19.682-3.512c-1.893 0-3.265-1.29-3.265-3.348s1.372-3.348 3.265-3.348c1.894 0 3.266 1.29 3.266 3.348s-1.372 3.348-3.266 3.348ZM87.905 20c1.811 0 3.184-.659 3.925-1.674v1.29h4.116V5.895H91.83v7.491c0 1.949-1.043 2.827-2.553 2.827-1.317 0-2.387-.796-2.387-2.497V5.895h-4.116v8.425c0 3.704 2.36 5.68 5.131 5.68Zm14.441-7.876v7.492h-4.117V5.895h4.117v1.29c.741-1.016 2.113-1.674 3.924-1.674 2.772 0 5.132 1.975 5.132 5.68v8.425h-4.117v-7.821c0-1.702-1.07-2.497-2.387-2.497-1.509 0-2.552.878-2.552 2.826ZM119.366 20c1.838 0 3.183-.631 4.089-1.674v1.29h4.116V.406h-4.116v6.778c-.906-1.042-2.251-1.673-4.089-1.673-3.595 0-6.559 3.155-6.559 7.244 0 4.09 2.964 7.245 6.559 7.245Zm-2.442-7.245c0 2.058 1.372 3.348 3.265 3.348 1.894 0 3.266-1.29 3.266-3.348s-1.372-3.348-3.266-3.348c-1.893 0-3.265 1.29-3.265 3.348Z" clip-rule="evenodd"/></svg>