<svg xmlns="http://www.w3.org/2000/svg" width="56" height="56" fill="none"><circle cx="28" cy="28" r="28" fill="#000"/><path fill="#444" d="M15.565 28.565a1.93 1.93 0 0 1 2.606-.113l.123.113 10.14 10.141a1.93 1.93 0 0 1-2.605 2.842l-.123-.113-10.14-10.142a1.93 1.93 0 0 1 0-2.728Z"/><path fill="#fff" d="M36.19 17.48c1.006-.995 2.706-.34 2.806 1.026l.004.126v10.736c0 .9-.737 1.629-1.646 1.629a1.64 1.64 0 0 1-1.642-1.507l-.005-.122v-6.805l-8.043 7.957c-1.007.995-2.707.34-2.806-1.026l-.004-.126v-6.805L16.81 30.52a1.66 1.66 0 0 1-2.224.095l-.105-.095a1.616 1.616 0 0 1-.096-2.2l.096-.103L25.336 17.48c1.007-.995 2.707-.34 2.806 1.026l.004.126v6.804l8.044-7.956Z"/></svg>